<!--?xml version="1.0" standalone="no"?-->
              <svg id="sw-js-blob-svg" viewBox="0 0 100 100" xmlns="http://www.w3.org/2000/svg" version="1.1">
                    <defs> 
                        <linearGradient id="sw-gradient" x1="0" x2="1" y1="1" y2="0">
                            <stop id="stop1" stop-color="rgba(248, 117, 55, 1)" offset="0%"></stop>
                            <stop id="stop2" stop-color="rgba(251, 168, 31, 1)" offset="100%"></stop>
                        </linearGradient>
                    </defs>
                <path fill="url(#sw-gradient)" d="M7.9,-10.3C15,-5.6,29,-9.8,31.6,-8.7C34.1,-7.5,25.3,-1.1,19.5,3.1C13.6,7.3,10.9,9.2,8.1,9.2C5.4,9.2,2.7,7.3,-3.4,12C-9.6,16.7,-19.1,28.1,-19.6,27.4C-20.2,26.6,-11.7,13.8,-10.4,6.1C-9.2,-1.6,-15.3,-4.3,-18.9,-10.1C-22.4,-15.9,-23.6,-24.9,-20,-30.8C-16.4,-36.6,-8.2,-39.2,-3.9,-33.8C0.3,-28.4,0.7,-14.9,7.9,-10.3Z" width="100%" height="100%" transform="translate(50 50)" stroke-width="0" style="transition: all 0.3s ease 0s;" stroke="url(#sw-gradient)"></path>
              </svg>